<svg xmlns="http://www.w3.org/2000/svg" viewBox="0 0 126.30002 126.30002">
    <path d="M89.9,76.9a27.0209,27.0209,0,0,0,4.9-12,25.55784,25.55784,0,0,0-1.7-12.2c3.6,5.4,5.6,11.4,4.9,17.4-.9,7.5-7.1,17.6-21.4,24.8C84.2,89.2,88.3,82.6,89.9,76.9M30.3,58.7C30,77.5,32.8,89.4,38.6,94a14.04017,14.04017,0,0,0,1.8,1.2,13.98252,13.98252,0,0,0,3.5,4.3c2.5,2,6.3,3.2,10.8,3.2-8.2,2-15.2,1.5-19.1-1.6-5.2-4.2-7.8-15.5-7.5-33.6.2-12.2,1.3-21.3,3.5-27.2a151.02643,151.02643,0,0,0-1.3,18.4M45.4,27.4a10.03954,10.03954,0,0,0-2,1.6,13.48136,13.48136,0,0,0-7,1.4c1.3-3.2,2.9-5.4,4.9-6.7a11.71265,11.71265,0,0,1,6.1-1.4c6.3,0,14.8,3.1,23,8.3-10.3-5-19.9-6.4-25-3.2m-8.5,5.2a11.279,11.279,0,0,1,4.7-1.4c-3.8,5.8-5.8,16.6-6,33-.2,11.6.8,20.5,3,26.8-4.3-5-6.4-15.8-6.1-32.2.1-10.5,1-18.7,2.6-24.6a12.93876,12.93876,0,0,1,1.8-1.6M92.7,64.7a23.9936,23.9936,0,0,1-2,6.7c.2-13.3-11.4-25.7-22.8-33.2-7.5-4.9-15.1-7.9-21.4-8.8h0A11.71264,11.71264,0,0,1,52.6,28c6.5,0,15.4,3.3,23.8,8.8a72.705,72.705,0,0,1,8.4,6.5c5.3,6.3,8.8,13.7,7.9,21.4M67.4,91.2C57.2,95.5,47.6,96.3,42,93.6c-3-5.8-4.4-15.6-4.2-29.3.2-17.2,2.4-28.1,6.6-33,6.2.4,14.4,3.5,22.4,8.7,11.5,7.6,23.3,20.3,21.7,33.5-.1.8-.3,1.6-.5,2.5-4,5.5-10.6,11-20.6,15.2M45.3,97.8c-.4-.4-.9-.8-1.3-1.2a23.23291,23.23291,0,0,0,6.1.7,47.45122,47.45122,0,0,0,18.1-4.1,53.0628,53.0628,0,0,0,17-10.9c-3.5,6-10.1,12.3-20.8,17.1-8.1,2-15.2,1.5-19.1-1.6M86.2,41.6A68.08362,68.08362,0,0,0,72.1,29.3C59.5,21,46.3,18,40,21.9Q35.5,24.75,33.1,33c-4.6,5.4-6.9,16.5-7.1,34.5-.3,18.8,2.5,30.7,8.3,35.3,2.7,2.1,6.6,3.2,11.4,3.2a47.451,47.451,0,0,0,18.1-4.1c.4-.2.9-.4,1.3-.6a57.94971,57.94971,0,0,0,8.3-2.8C91.4,91,99,78.9,100,70.2,101.5,59.7,94.8,49.4,86.2,41.6" fill="#FFFFFF"/>
</svg>
