<svg width="12" height="13" viewBox="0 0 12 13" fill="none" xmlns="http://www.w3.org/2000/svg">
<path d="M2.57165 2.8C4.07165 1.4 6.27165 1.2 7.97165 2.2H7.17165C6.87165 2.2 6.67165 2.5 6.67165 2.8C6.67165 3.1 6.97165 3.3 7.27165 3.3L9.47165 3.2C9.77165 3.3 9.97165 3 9.97165 2.7L9.87165 0.5C9.87165 0.4 9.77165 0.2 9.67165 0.1C9.57165 0 9.47165 0 9.27165 0C8.97165 0 8.77165 0.3 8.77165 0.6V1.5C7.97165 0.9 6.97165 0.5 5.87165 0.5C4.37165 0.4 2.97165 0.9 1.87165 1.9C0.271647 3.3 -0.328353 5.5 0.171647 7.5C0.271647 7.7 0.471647 7.9 0.671647 7.9H0.771647C0.871647 7.9 1.07165 7.8 1.07165 7.7C1.17165 7.6 1.17165 7.4 1.17165 7.3C0.771647 5.6 1.37165 3.9 2.57165 2.8Z" fill="#326CDE"/>
<path d="M11.2716 4.99999C11.1716 4.69999 10.8716 4.49999 10.5716 4.59999C10.4716 4.59999 10.2716 4.69999 10.2716 4.79999C10.1716 4.89999 10.1716 5.09999 10.1716 5.19999C10.5716 6.79999 10.0716 8.49999 8.77158 9.69999C7.97158 10.5 6.87158 10.9 5.67158 10.9C4.77158 10.9 3.97158 10.6 3.17158 10.2L4.07158 10.1C4.37158 10.1 4.57158 9.79999 4.57158 9.49999C4.57158 9.39999 4.47158 9.19999 4.37158 9.09999C4.27158 8.99999 4.17158 8.89999 4.07158 8.99999L1.87158 9.19999C1.77158 9.19999 1.57158 9.29999 1.47158 9.39999C1.37158 9.49999 1.37158 9.59999 1.37158 9.79999L1.57158 12C1.57158 12.3 1.87158 12.5 2.07158 12.5C2.07158 12.5 2.07158 12.5 2.17158 12.5C2.27158 12.5 2.47158 12.4 2.57158 12.3C2.67158 12.2 2.67158 12 2.67158 11.9L2.57158 11C3.37158 11.6 4.37158 11.9 5.47158 11.9C5.57158 11.9 5.67158 11.9 5.77158 11.9C7.17158 11.9 8.47158 11.4 9.57158 10.4C11.0716 9.09999 11.6716 6.99999 11.2716 4.99999Z" fill="#326CDE"/>
</svg>
